<svg width="60" height="59" viewBox="0 0 60 59" fill="none" xmlns="http://www.w3.org/2000/svg">
<g id="ph:list-magnifying-glass">
<path id="Vector" d="M7.5 14.75C7.5 14.261 7.69754 13.792 8.04918 13.4463C8.40081 13.1005 8.87772 12.9062 9.375 12.9062H50.625C51.1223 12.9062 51.5992 13.1005 51.9508 13.4463C52.3025 13.792 52.5 14.261 52.5 14.75C52.5 15.239 52.3025 15.708 51.9508 16.0537C51.5992 16.3995 51.1223 16.5938 50.625 16.5938H9.375C8.87772 16.5938 8.40081 16.3995 8.04918 16.0537C7.69754 15.708 7.5 15.239 7.5 14.75ZM9.375 31.3438H26.25C26.7473 31.3438 27.2242 31.1495 27.5758 30.8037C27.9275 30.458 28.125 29.989 28.125 29.5C28.125 29.011 27.9275 28.542 27.5758 28.1963C27.2242 27.8505 26.7473 27.6562 26.25 27.6562H9.375C8.87772 27.6562 8.40081 27.8505 8.04918 28.1963C7.69754 28.542 7.5 29.011 7.5 29.5C7.5 29.989 7.69754 30.458 8.04918 30.8037C8.40081 31.1495 8.87772 31.3438 9.375 31.3438ZM30 42.4062H9.375C8.87772 42.4062 8.40081 42.6005 8.04918 42.9463C7.69754 43.292 7.5 43.761 7.5 44.25C7.5 44.739 7.69754 45.208 8.04918 45.5537C8.40081 45.8995 8.87772 46.0938 9.375 46.0938H30C30.4973 46.0938 30.9742 45.8995 31.3258 45.5537C31.6775 45.208 31.875 44.739 31.875 44.25C31.875 43.761 31.6775 43.292 31.3258 42.9463C30.9742 42.6005 30.4973 42.4062 30 42.4062ZM55.7016 45.5545C55.5274 45.7259 55.3206 45.8619 55.093 45.9547C54.8654 46.0474 54.6214 46.0952 54.375 46.0952C54.1286 46.0952 53.8846 46.0474 53.657 45.9547C53.4294 45.8619 53.2226 45.7259 53.0484 45.5545L48.2812 40.8759C46.3426 42.1337 43.9981 42.639 41.7022 42.294C39.4063 41.949 37.3223 40.7782 35.8541 39.0085C34.3859 37.2388 33.638 34.9962 33.7554 32.7152C33.8727 30.4343 34.847 28.2773 36.4893 26.6624C38.1316 25.0474 40.3251 24.0895 42.6447 23.9741C44.9644 23.8587 47.245 24.5941 49.0447 26.0378C50.8443 27.4815 52.035 29.5307 52.3858 31.7884C52.7367 34.0461 52.2228 36.3514 50.9437 38.2578L55.7016 42.9363C55.8773 43.1077 56.0168 43.3116 56.112 43.5363C56.2072 43.761 56.2562 44.002 56.2562 44.2454C56.2562 44.4888 56.2072 44.7298 56.112 44.9545C56.0168 45.1791 55.8773 45.3831 55.7016 45.5545ZM43.125 38.7188C44.2375 38.7188 45.3251 38.3944 46.2501 37.7866C47.1751 37.1788 47.8961 36.3149 48.3218 35.3042C48.7476 34.2935 48.859 33.1814 48.6419 32.1084C48.4249 31.0354 47.8891 30.0499 47.1025 29.2763C46.3158 28.5028 45.3135 27.976 44.2224 27.7625C43.1312 27.5491 42.0002 27.6586 40.9724 28.0773C39.9446 28.4959 39.0661 29.2049 38.448 30.1145C37.8299 31.0241 37.5 32.0935 37.5 33.1875C37.5 34.6545 38.0926 36.0614 39.1475 37.0987C40.2024 38.136 41.6332 38.7188 43.125 38.7188Z" fill="#F8F8F8"/>
</g>
</svg>
