<svg width="53" height="52" viewBox="0 0 53 52" fill="none" xmlns="http://www.w3.org/2000/svg">
<g id="fluent-mdl2:issue-tracking">
<path id="Vector" d="M6.625 6C6.625 2.68629 9.31129 0 12.625 0H40.375C43.6887 0 46.375 2.68629 46.375 6V46C46.375 49.3137 43.6887 52 40.375 52H12.625C9.31129 52 6.625 49.3137 6.625 46V6ZM37.0625 48.75C40.3762 48.75 43.0625 46.0637 43.0625 42.75V9.25C43.0625 5.93629 40.3762 3.25 37.0625 3.25H15.9375C12.6238 3.25 9.9375 5.93629 9.9375 9.25V42.75C9.9375 46.0637 12.6238 48.75 15.9375 48.75H37.0625ZM38.125 13C39.0225 13 39.75 13.7275 39.75 14.625C39.75 15.5225 39.0225 16.25 38.125 16.25H28.125C27.2275 16.25 26.5 15.5225 26.5 14.625C26.5 13.7275 27.2275 13 28.125 13H38.125ZM38.125 26C39.0225 26 39.75 26.7275 39.75 27.625C39.75 28.5225 39.0225 29.25 38.125 29.25H28.125C27.2275 29.25 26.5 28.5225 26.5 27.625C26.5 26.7275 27.2275 26 28.125 26H38.125ZM38.125 39C39.0225 39 39.75 39.7275 39.75 40.625C39.75 41.5225 39.0225 42.25 38.125 42.25H28.125C27.2275 42.25 26.5 41.5225 26.5 40.625C26.5 39.7275 27.2275 39 28.125 39H38.125ZM23.1653 9.72824C23.817 10.3677 23.817 11.4175 23.1653 12.0569L20.4146 14.7557C19.1952 15.9522 17.2423 15.9522 16.0229 14.7557L14.9284 13.6819C14.2767 13.0425 14.2767 11.9927 14.9284 11.3532L14.9968 11.2861C15.5932 10.701 16.5484 10.701 17.1448 11.2861C17.7412 11.8713 18.6963 11.8713 19.2927 11.2861L20.8806 9.72824C21.515 9.10581 22.5309 9.10581 23.1653 9.72824ZM23.1653 22.7282C23.817 23.3677 23.817 24.4175 23.1653 25.0569L20.4146 27.7557C19.1952 28.9522 17.2423 28.9522 16.0229 27.7557L14.9284 26.6819C14.2767 26.0425 14.2767 24.9927 14.9284 24.3532L14.9968 24.2861C15.5932 23.701 16.5484 23.701 17.1448 24.2861C17.7412 24.8713 18.6963 24.8713 19.2927 24.2861L20.8806 22.7282C21.515 22.1058 22.5309 22.1058 23.1653 22.7282ZM23.1653 35.7282C23.817 36.3677 23.817 37.4175 23.1653 38.0569L20.4146 40.7557C19.1952 41.9522 17.2423 41.9522 16.0229 40.7557L14.9284 39.6819C14.2767 39.0425 14.2767 37.9927 14.9284 37.3532L14.9968 37.2861C15.5932 36.701 16.5484 36.701 17.1448 37.2861C17.7412 37.8713 18.6963 37.8713 19.2927 37.2861L20.8806 35.7282C21.515 35.1058 22.5309 35.1058 23.1653 35.7282Z" fill="#F8F8F8"/>
</g>
</svg>
